# xmcd
#
# Track frame offsets:
#   150
#   17422
#   35363
#   50533
#   67126
#   88360
#   107403
#   123738
#   141551
#   154983
#   172499
#   193630
#   209054
#
# Disc length: 3057 seconds
#
# Revision: 0
# Processed by: cddbd v1.5.2PL0 Copyright (c) Steve Scherf et al.
# Submitted via: GXTranscoder 2.0.1939
#
DISCID=ce0bef0d
DTITLE=Mark Medlock - Cloud Dancer
DYEAR=2008
DGENRE=Pop
TTITLE0=Summer Love
TTITLE1=Heaven is for Everyone
TTITLE2=Over You
TTITLE3=She walk like an angel
TTITLE4=Gimme a chance
TTITLE5=Stop it
TTITLE6=If your Heart is crying
TTITLE7=Can i hold you
TTITLE8=Cant change lovers
TTITLE9=If i could fly
TTITLE10=Every heart is beating
TTITLE11=If i cant have your love
TTITLE12=Never let you go
EXTD=
EXTT0=
EXTT1=
EXTT2=
EXTT3=
EXTT4=
EXTT5=
EXTT6=
EXTT7=
EXTT8=
EXTT9=
EXTT10=
EXTT11=
EXTT12=
PLAYORDER=
